<svg width="173" height="52" viewBox="0 0 173 52" fill="none" xmlns="http://www.w3.org/2000/svg">
<rect x="4" width="13" height="10" rx="5" fill="white"/>
<rect y="14" width="21" height="38" fill="white"/>
<path d="M37.9375 36.1172L37.8594 34.2031C40.2552 33.8125 41.7396 33.6042 42.3125 33.5781C42.3385 32.6927 42.3516 31.3646 42.3516 29.5938C42.3516 27.25 42.2995 23.8776 42.1953 19.4766C42.0911 15.0495 42.026 12.1198 42 10.6875L38.0547 10.4922L37.7812 8.22656C38.849 8.2526 40.5026 8.26562 42.7422 8.26562C45.0339 8.26562 46.7396 8.27865 47.8594 8.30469L47.9766 10.2578C47.5339 10.4401 46.9089 10.5573 46.1016 10.6094C45.2943 10.6354 44.7865 10.6615 44.5781 10.6875C44.6562 11.4167 44.6953 13.2526 44.6953 16.1953C44.7214 19.138 44.7344 22.3932 44.7344 25.9609C44.7344 29.5286 44.7604 32.0677 44.8125 33.5781C45.2292 33.6562 46.0234 33.7474 47.1953 33.8516C48.3672 33.9557 49.0964 34.0339 49.3828 34.0859L49.3047 36.1172C48.5234 36.0911 47.2865 36.0781 45.5938 36.0781C44.7083 36.0781 43.3932 36.0781 41.6484 36.0781C39.9036 36.1042 38.6667 36.1172 37.9375 36.1172ZM54.4219 20.375L54.5781 35.8438C54.1875 36.0521 53.7188 36.1562 53.1719 36.1562C52.7552 36.1562 52.2865 36.0911 51.7656 35.9609C51.8438 34.3203 51.8958 31.0911 51.9219 26.2734C51.9479 21.4557 52.0521 17.888 52.2344 15.5703L53.9922 15.9609L54.1094 18.1484C55.4896 16.6901 57.0781 15.9609 58.875 15.9609C59.7865 15.9609 60.5156 16.026 61.0625 16.1562C61.6094 16.2865 62.1302 16.612 62.625 17.1328C63.1458 17.6276 63.5365 18.2917 63.7969 19.125C64.0573 19.9583 64.2917 21.1562 64.5 22.7188C64.7083 24.2552 64.8516 26.0651 64.9297 28.1484C65.0339 30.2057 65.099 32.8099 65.125 35.9609C64.9688 36.013 64.6693 36.0391 64.2266 36.0391C63.2891 36.0391 62.5599 35.9219 62.0391 35.6875C61.9349 35.2708 61.8828 34.5807 61.8828 33.6172C61.8828 33.1224 61.8958 32.1979 61.9219 30.8438C61.974 29.4635 62 28.3958 62 27.6406C62 26.3906 61.9479 25.2969 61.8438 24.3594C61.7656 23.4219 61.5964 22.4974 61.3359 21.5859C61.1016 20.6745 60.724 19.9714 60.2031 19.4766C59.7083 18.9818 59.0833 18.7344 58.3281 18.7344C57.4688 18.7344 56.7917 18.7995 56.2969 18.9297C55.8281 19.0599 55.4896 19.2161 55.2812 19.3984C55.099 19.5807 54.8125 19.9062 54.4219 20.375ZM80.3203 17.1719L79.9297 18.7344C77.4036 17.6927 75.4375 17.1719 74.0312 17.1719C72.7812 17.1719 71.8958 17.3672 71.375 17.7578C70.8802 18.1224 70.6328 18.9167 70.6328 20.1406C70.6328 21.1302 70.9844 21.9505 71.6875 22.6016C72.4167 23.2526 73.2891 23.7734 74.3047 24.1641C75.3203 24.5286 76.3359 24.9323 77.3516 25.375C78.3932 25.7917 79.2656 26.4167 79.9688 27.25C80.6979 28.0833 81.0625 29.112 81.0625 30.3359C81.0625 32.0026 80.4505 33.4609 79.2266 34.7109C78.0026 35.9609 76.4141 36.599 74.4609 36.625C73.0286 36.625 71.6875 36.3255 70.4375 35.7266C69.1875 35.1276 68.1979 34.3724 67.4688 33.4609L68.6016 32.2891C68.9141 32.4193 69.3698 32.6276 69.9688 32.9141C70.5938 33.2005 71.0365 33.3958 71.2969 33.5C71.5573 33.5781 71.9349 33.6693 72.4297 33.7734C72.9505 33.8776 73.4974 33.9297 74.0703 33.9297C75.2943 33.9297 76.2969 33.6562 77.0781 33.1094C77.8594 32.5625 78.25 31.7943 78.25 30.8047C78.25 30.1536 78.0677 29.6068 77.7031 29.1641C77.3385 28.6953 76.8568 28.3177 76.2578 28.0312C75.6589 27.7448 74.9948 27.4714 74.2656 27.2109C73.5625 26.9505 72.8464 26.6641 72.1172 26.3516C71.4141 26.013 70.763 25.6224 70.1641 25.1797C69.5651 24.7109 69.0833 24.0859 68.7188 23.3047C68.3542 22.5234 68.1719 21.599 68.1719 20.5312C68.1719 18.9688 68.5885 17.6667 69.4219 16.625C70.2812 15.5573 71.4792 15.0234 73.0156 15.0234C73.6146 15.0234 74.2917 15.1146 75.0469 15.2969C75.8021 15.4792 76.401 15.6484 76.8438 15.8047C77.2865 15.9609 77.9375 16.2214 78.7969 16.5859C79.6823 16.9245 80.1901 17.1198 80.3203 17.1719ZM83.9141 15.4531L86.1016 15.8438C86.1016 16.3906 86.1146 16.7943 86.1406 17.0547C87.5729 16.1432 89.0182 15.6875 90.4766 15.6875C92.8464 15.6875 94.6953 16.7031 96.0234 18.7344C97.3516 20.7656 98.0156 23.0703 98.0156 25.6484C98.0156 26.9505 97.9115 28.2005 97.7031 29.3984C97.5208 30.5703 97.1823 31.7812 96.6875 33.0312C96.1927 34.2552 95.4245 35.2448 94.3828 36C93.3672 36.7292 92.1302 37.0938 90.6719 37.0938C89.2917 37.0938 87.9635 36.7292 86.6875 36C86.7917 40.5573 86.8828 43.9427 86.9609 46.1562C86.7266 46.9635 86.2708 47.3672 85.5938 47.3672C85.125 47.3672 84.6693 47.1719 84.2266 46.7812C83.8099 46.4167 83.5495 45.9609 83.4453 45.4141L83.9141 15.4531ZM86.4531 19.5938L86.5703 32.2109C86.8828 32.8359 87.3646 33.3438 88.0156 33.7344C88.6667 34.099 89.3828 34.2812 90.1641 34.2812C91.1797 34.2812 92.0391 33.9557 92.7422 33.3047C93.4714 32.6536 93.9792 31.7943 94.2656 30.7266C94.5781 29.6328 94.7865 28.6172 94.8906 27.6797C95.0208 26.7422 95.0859 25.7526 95.0859 24.7109C95.0859 20.2839 93.5885 18.0703 90.5938 18.0703C89.6302 18.0703 88.7318 18.2135 87.8984 18.5C87.0911 18.7604 86.6094 19.125 86.4531 19.5938ZM102.039 15.9219L103.836 16.3125C104.044 18.4479 104.227 21.8073 104.383 26.3906C104.539 30.9479 104.643 33.7734 104.695 34.8672C104.461 35.6745 104.005 36.0781 103.328 36.0781C102.859 36.0781 102.404 35.8958 101.961 35.5312C101.544 35.1406 101.284 34.6719 101.18 34.125C101.232 33.0573 101.336 30.2839 101.492 25.8047C101.648 21.2995 101.831 18.0052 102.039 15.9219ZM102.586 8.92969C103.289 8.92969 103.875 9.24219 104.344 9.86719C104.812 10.4661 105.047 11.1562 105.047 11.9375C105.047 12.5104 104.904 12.9792 104.617 13.3438C104.357 13.6823 103.992 13.8516 103.523 13.8516C102.794 13.8516 102.221 13.5521 101.805 12.9531C101.388 12.3542 101.18 11.651 101.18 10.8438C101.18 10.2708 101.297 9.8151 101.531 9.47656C101.792 9.11198 102.143 8.92969 102.586 8.92969ZM121.141 21.1172L119.422 21C118.875 19.5417 117.951 18.8125 116.648 18.8125C116.076 18.8125 115.464 18.9427 114.812 19.2031C114.188 19.4635 113.667 19.737 113.25 20.0234C112.833 20.2839 112.286 20.6745 111.609 21.1953C111.609 21.5599 111.596 22.7448 111.57 24.75C111.57 26.7552 111.583 28.9818 111.609 31.4297C111.661 33.8776 111.714 35.1927 111.766 35.375C111.531 36.1562 111.076 36.5469 110.398 36.5469C109.93 36.5469 109.474 36.3646 109.031 36C108.615 35.6094 108.354 35.1406 108.25 34.5938C108.745 26.2344 109.188 19.9193 109.578 15.6484L111.336 16.0391L111.453 18.6562C113.276 17.1458 114.839 16.3906 116.141 16.3906C117.573 16.3906 118.771 16.7161 119.734 17.3672C120.724 18.0182 121.219 18.9688 121.219 20.2188C121.219 20.6094 121.193 20.9089 121.141 21.1172ZM138.523 32.2109L138.914 33.9297C137.768 34.3464 136.062 34.8151 133.797 35.3359C131.557 35.8307 129.891 36.0781 128.797 36.0781C127.677 36.0781 126.701 35.7135 125.867 34.9844C125.034 34.2292 124.409 33.2786 123.992 32.1328C123.576 30.9609 123.263 29.8151 123.055 28.6953C122.872 27.5495 122.781 26.4297 122.781 25.3359C122.781 18.8255 125.724 15.5703 131.609 15.5703C133.016 15.5703 134.253 16.026 135.32 16.9375C136.388 17.8229 136.922 18.9818 136.922 20.4141C136.922 21.1953 136.701 21.8854 136.258 22.4844C135.841 23.0833 135.32 23.5651 134.695 23.9297C134.096 24.2682 133.315 24.5807 132.352 24.8672C131.414 25.1536 130.581 25.362 129.852 25.4922C129.122 25.6224 128.25 25.7656 127.234 25.9219C126.219 26.0781 125.516 26.1953 125.125 26.2734C125.151 27.0286 125.19 27.6927 125.242 28.2656C125.32 28.8385 125.451 29.4635 125.633 30.1406C125.841 30.7917 126.102 31.3385 126.414 31.7812C126.753 32.1979 127.208 32.5495 127.781 32.8359C128.354 33.1224 129.031 33.2656 129.812 33.2656C130.75 33.2656 131.896 33.1875 133.25 33.0312C134.604 32.849 135.802 32.6667 136.844 32.4844C137.911 32.3021 138.471 32.2109 138.523 32.2109ZM125.281 23.8516C128.823 22.8359 131.727 21.7682 133.992 20.6484C133.81 19.7891 133.562 19.1641 133.25 18.7734C132.938 18.3828 132.469 18.1875 131.844 18.1875C130.255 18.1875 128.81 18.7344 127.508 19.8281C126.232 20.9219 125.49 22.263 125.281 23.8516ZM155.359 34.2422L155.75 36C154.734 36 152.885 36.0391 150.203 36.1172C147.547 36.2214 145.62 36.2734 144.422 36.2734C142.495 36.2734 141.18 36.1823 140.477 36C140.737 33.1354 140.893 28.3438 140.945 21.625C140.997 14.9062 141.167 10.2188 141.453 7.5625C142.339 7.64062 144.682 7.70573 148.484 7.75781C152.312 7.8099 154.812 7.92708 155.984 8.10938L156.414 9.86719C155.242 10.0755 152.898 10.3229 149.383 10.6094C145.867 10.8958 144.018 11.0521 143.836 11.0781C143.862 11.6771 143.914 12.901 143.992 14.75C144.096 16.599 144.161 18.1224 144.188 19.3203C145.073 19.4245 146.688 19.5807 149.031 19.7891C151.375 19.9714 152.859 20.0885 153.484 20.1406L153.875 21.9375C148.38 22.4323 145.164 22.6927 144.227 22.7188C144.227 23.8646 144.201 25.6094 144.148 27.9531C144.122 30.2708 144.109 31.9766 144.109 33.0703C150.073 33.6172 153.823 34.0078 155.359 34.2422ZM169.969 37.0156L167.82 36.5859C167.82 36.0651 167.807 35.6745 167.781 35.4141C166.401 36.2995 164.943 36.7422 163.406 36.7422C161.036 36.7422 159.188 35.7266 157.859 33.6953C156.557 31.6641 155.906 29.3594 155.906 26.7812C155.906 25.4531 155.997 24.2031 156.18 23.0312C156.388 21.8594 156.727 20.6615 157.195 19.4375C157.69 18.1875 158.445 17.1979 159.461 16.4688C160.503 15.7396 161.753 15.375 163.211 15.375C164.643 15.375 165.984 15.7266 167.234 16.4297C167.443 13.6693 167.547 10.8828 167.547 8.07031C167.547 6.79427 167.534 5.85677 167.508 5.25781C168.758 5.49219 169.747 5.79167 170.477 6.15625L169.969 37.0156ZM167.469 32.8359L167.352 20.2578C167.039 19.6068 166.544 19.099 165.867 18.7344C165.216 18.3438 164.513 18.1484 163.758 18.1484C162.742 18.1484 161.87 18.474 161.141 19.125C160.438 19.776 159.93 20.6484 159.617 21.7422C159.331 22.8099 159.122 23.8125 158.992 24.75C158.888 25.6875 158.836 26.6771 158.836 27.7188C158.836 32.1458 160.32 34.3594 163.289 34.3594C164.279 34.3594 165.177 34.2292 165.984 33.9688C166.818 33.6823 167.312 33.3047 167.469 32.8359Z" fill="white"/>
</svg>
